<svg width="35" height="36" viewBox="0 0 35 36" fill="none" xmlns="http://www.w3.org/2000/svg">
<path d="M10.8004 2.2998L1.40039 11.5998V24.6998L10.8004 34.0998H23.9004L33.3004 24.6998V11.5998L23.9004 2.2998H10.8004Z" fill="#E40134"/>
<path d="M11.2996 3.5L2.59961 12.1V24.2L11.2996 32.8H23.3996L31.9996 24.2V12.1L23.3996 3.5H11.2996Z" fill="white"/>
<path d="M11.8004 4.7002L3.90039 12.6002V23.7002L11.8004 31.5002H22.9004L30.8004 23.7002V12.6002L22.9004 4.7002H11.8004Z" fill="#E21A36"/>
<path d="M11.8004 4.7002L3.90039 12.6002V23.7002L11.8004 31.5002H22.9004L30.8004 23.7002V12.6002L22.9004 4.7002H11.8004Z" fill="#E40134"/>
<path d="M16.4004 23.4002V21.6002C17.1004 21.6002 17.2004 21.4002 17.2004 21.0002V15.1002C16.7004 15.1002 16.2004 15.3002 16.2004 15.8002V16.7002H14.4004V13.2002H22.7004V16.7002H21.0004V15.8002C21.0004 15.3002 20.5004 15.1002 20.0004 15.1002V21.0002C20.0004 21.4002 20.2004 21.6002 20.8004 21.6002V23.4002H16.4004Z" fill="black"/>
<path d="M23.5996 23.3998V21.6998C24.1996 21.6998 24.3996 21.4998 24.3996 21.1998V15.4998C24.2996 15.0998 23.9996 14.9998 23.6996 14.9998V13.2998H27.7996V14.9998C27.4996 14.9998 27.1996 15.1998 27.0996 15.4998V21.1998C27.0996 21.5998 27.3996 21.6998 27.8996 21.6998V23.3998H23.5996Z" fill="black"/>
<path d="M11.8998 13.2001H13.3998V16.2001H11.2998V16.0001C11.2998 15.2001 10.7998 14.9001 10.1998 15.0001C9.6998 15.1001 9.4998 15.3001 9.4998 15.8001C9.4998 17.7001 13.7998 16.9001 13.7998 20.3001C13.7998 22.7001 12.7998 23.8001 10.3998 23.6001C10.0998 23.6001 9.1998 23.2001 8.9998 22.9001C8.9998 23.0001 8.9998 23.4001 8.9998 23.4001C8.9998 23.4001 7.6998 23.4001 6.7998 23.4001V20.2001H8.9998V20.4001C9.0998 21.3001 9.4998 21.6001 10.2998 21.6001C10.7998 21.6001 10.9998 21.2001 10.9998 20.7001C10.9998 18.3001 6.7998 20.1001 6.8998 16.0001C6.8998 14.2001 8.0998 13.1001 10.2998 13.1001C10.9998 13.1001 11.6998 13.5001 11.8998 13.8001H11.9998V13.6001C11.8998 13.5001 11.8998 13.2001 11.8998 13.2001Z" fill="black"/>
<path d="M15.9 22.5V20.7C16.6 20.7 16.7 20.5 16.7 20.1V14.4C16.2 14.4 15.8 14.6 15.7 15.1V16H14V12.5H22.1V16H20.4V15.1C20.4 14.6 19.9 14.4 19.4 14.4V20.1C19.4 20.5 19.5 20.7 20.2 20.7V22.5H15.9Z" fill="white"/>
<path d="M23 22.5V20.7C23.5 20.7 23.8 20.5 23.8 20.2V14.7C23.7 14.3 23.4 14.2 23.1 14.2V12.5H27.1V14.2C26.9 14.2 26.5 14.4 26.4 14.7V20.2C26.4 20.6 26.7 20.7 27.2 20.7V22.5H23Z" fill="white"/>
<path d="M11.4998 12.5002H12.8998V15.4002H10.8998V15.2002C10.8998 14.4002 10.3998 14.2002 9.7998 14.2002C9.2998 14.3002 9.09981 14.5002 9.09981 15.0002C9.09981 16.8002 13.3998 16.0002 13.3998 19.4002C13.3998 21.6002 12.1998 22.9002 9.9998 22.6002C9.6998 22.6002 8.6998 22.2002 8.4998 21.9002C8.4998 22.0002 8.4998 22.4002 8.4998 22.4002C8.4998 22.4002 7.2998 22.4002 6.4998 22.4002V19.3002H8.4998V19.5002C8.5998 20.4002 9.1998 20.7002 9.8998 20.7002C10.3998 20.7002 10.5998 20.3002 10.5998 19.8002C10.5998 17.5002 6.3998 19.2002 6.4998 15.2002C6.4998 13.4002 7.9998 12.2002 9.7998 12.3002C10.4998 12.4002 11.1998 12.7002 11.3998 12.9002H11.4998V12.7002C11.4998 12.8002 11.4998 12.5002 11.4998 12.5002Z" fill="white"/>
</svg>
